<svg width="1430" height="852" viewBox="0 0 1430 852" fill="none" xmlns="http://www.w3.org/2000/svg">
<path d="M25.4643 87.095C18.8136 82.1557 9.41798 83.5431 4.47871 90.1939C-0.460566 96.8447 0.926874 106.24 7.57764 111.18L25.4643 87.095ZM350.635 210.677L350.483 225.677L350.635 210.677ZM708.931 92.6757C705.363 85.1995 696.409 82.0317 688.933 85.6003C681.456 89.1689 678.289 98.1225 681.857 105.599L708.931 92.6757ZM668.308 100.022C661.574 104.848 660.028 114.219 664.853 120.952C669.679 127.686 679.05 129.233 685.783 124.407L668.308 100.022ZM1111.65 257.911C1103.86 255.105 1095.26 259.149 1092.46 266.944C1089.65 274.738 1093.7 283.332 1101.49 286.138L1111.65 257.911ZM1123.54 268.271C1124.27 260.019 1118.17 252.74 1109.92 252.012C1101.66 251.285 1094.38 257.385 1093.66 265.637L1123.54 268.271ZM789.933 236.349C790.671 228.097 784.579 220.81 776.328 220.073C768.077 219.336 760.79 225.427 760.052 233.678L789.933 236.349ZM760.08 233.922C759.197 242.159 765.159 249.552 773.396 250.435C781.633 251.317 789.026 245.355 789.909 237.118L760.08 233.922ZM949.714 214.909C955.131 221.177 964.603 221.866 970.871 216.449C977.139 211.032 977.828 201.559 972.411 195.292L949.714 214.909ZM970.504 193.218C964.838 187.175 955.346 186.868 949.302 192.534C943.258 198.2 942.952 207.693 948.618 213.736L970.504 193.218ZM892.186 247.902C888.558 240.455 879.579 237.358 872.132 240.985C864.684 244.613 861.587 253.592 865.215 261.039L892.186 247.902ZM1050.89 337.426C1043.89 341.855 1041.81 351.12 1046.24 358.122C1050.66 365.123 1059.93 367.208 1066.93 362.779L1050.89 337.426ZM1353.57 546.403C1347.18 551.676 1346.27 561.13 1351.54 567.52C1356.82 573.909 1366.27 574.815 1372.66 569.542L1353.57 546.403ZM1374.83 567.456C1380.9 561.827 1381.27 552.336 1375.64 546.258C1370.01 540.181 1360.52 539.818 1354.44 545.447L1374.83 567.456ZM1144.12 425.406C1150.79 420.493 1152.21 411.103 1147.3 404.433C1142.38 397.763 1132.99 396.339 1126.32 401.252L1144.12 425.406ZM1117.02 408.866C1110.61 414.118 1109.68 423.57 1114.93 429.976C1120.18 436.382 1129.63 437.317 1136.04 432.064L1117.02 408.866ZM1207.27 456.224C1199.01 456.905 1192.87 464.15 1193.55 472.406C1194.23 480.662 1201.47 486.804 1209.73 486.123L1207.27 456.224ZM1178.06 561.439C1170.6 557.831 1161.63 560.952 1158.02 568.409C1154.41 575.866 1157.53 584.836 1164.99 588.444L1178.06 561.439ZM1000.17 679.197C1001.66 671.047 996.256 663.237 988.106 661.752C979.956 660.267 972.145 665.67 970.66 673.82L1000.17 679.197ZM29.1055 91.4999C26.2876 83.7096 17.6879 79.6788 9.89763 82.4967C2.10737 85.3147 -1.92348 93.9143 0.894474 101.705L29.1055 91.4999ZM481.889 438.8C489.21 434.923 492.002 425.845 488.125 418.524C484.248 411.203 475.171 408.411 467.849 412.287L481.889 438.8ZM464.191 459.88C468.594 452.863 466.475 443.605 459.458 439.202C452.441 434.798 443.183 436.917 438.78 443.935L464.191 459.88ZM1008.55 664.943C1014.2 658.887 1013.88 649.395 1007.82 643.742C1001.77 638.089 992.274 638.416 986.621 644.472L1008.55 664.943ZM417.742 495.641C415.574 503.636 420.299 511.875 428.294 514.043C436.29 516.211 444.529 511.486 446.697 503.49L417.742 495.641ZM682.269 566.933C678.257 574.181 680.881 583.309 688.129 587.321C695.377 591.333 704.505 588.709 708.517 581.461L682.269 566.933ZM710.544 577.409C714.559 570.163 711.939 561.034 704.692 557.019C697.446 553.005 688.317 555.625 684.302 562.871L710.544 577.409ZM570.111 496.602C577.099 492.152 579.155 482.88 574.705 475.892C570.255 468.905 560.983 466.848 553.995 471.298L570.111 496.602ZM547.406 475.607C540.658 480.413 539.083 489.779 543.888 496.527C548.694 503.275 558.06 504.85 564.808 500.045L547.406 475.607ZM584.244 522.698C575.96 522.698 569.244 529.414 569.244 537.698C569.244 545.982 575.96 552.698 584.244 552.698L584.244 522.698ZM968.567 690.259C966.894 698.372 972.116 706.306 980.23 707.978C988.343 709.651 996.277 704.429 997.949 696.316L968.567 690.259ZM1178.84 718.838C1172.31 723.939 1171.15 733.365 1176.25 739.893C1181.36 746.421 1190.78 747.578 1197.31 742.477L1178.84 718.838ZM1201.53 736.305C1208.24 731.438 1209.72 722.058 1204.86 715.354C1199.99 708.65 1190.61 707.161 1183.91 712.029L1201.53 736.305ZM1124.06 707.943C1124.06 699.658 1117.35 692.943 1109.06 692.942C1100.78 692.942 1094.06 699.658 1094.06 707.942L1124.06 707.943ZM16.521 99.1373C7.57764 111.18 7.58172 111.183 7.58635 111.186C7.58865 111.188 7.59386 111.192 7.59846 111.195C7.60766 111.202 7.61912 111.21 7.63283 111.22C7.66025 111.241 7.69669 111.268 7.74209 111.301C7.83288 111.368 7.95953 111.461 8.1216 111.579C8.44575 111.815 8.91167 112.151 9.51603 112.582C10.7247 113.444 12.4875 114.683 14.7778 116.245C19.3578 119.369 26.0515 123.789 34.6454 129.077C51.8254 139.647 76.6462 153.715 107.398 167.834C168.787 196.02 254.454 224.709 350.483 225.677L350.635 210.677L350.786 195.678C260.361 194.767 178.97 167.685 119.916 140.571C90.4468 127.04 66.6995 113.575 50.3666 103.526C42.2043 98.5035 35.9054 94.3415 31.6819 91.4609C29.5705 90.0208 27.9789 88.9017 26.9335 88.1563C26.4109 87.7836 26.0249 87.5044 25.7789 87.3253C25.6559 87.2357 25.5679 87.1712 25.5154 87.1326C25.4891 87.1132 25.4716 87.1004 25.4631 87.0941C25.4589 87.0909 25.4568 87.0894 25.457 87.0896C25.4571 87.0896 25.459 87.091 25.459 87.091C25.4614 87.0928 25.4643 87.095 16.521 99.1373ZM350.635 210.677L350.483 225.677C446.598 226.645 535.217 198.437 599.352 170.057C631.492 155.834 657.697 141.474 675.89 130.489C684.98 124.999 692.135 120.314 697.077 116.865C699.523 115.159 701.556 113.666 703.056 112.473C703.758 111.916 704.61 111.213 705.387 110.471C705.707 110.164 706.474 109.419 707.25 108.401C707.592 107.952 708.447 106.797 709.161 105.141C709.549 104.242 711.882 98.8587 708.931 92.6757L695.394 99.1372L681.857 105.599C678.92 99.446 681.249 94.1066 681.612 93.2642C682.302 91.6647 683.112 90.5802 683.391 90.2143C684.041 89.3621 684.605 88.8343 684.645 88.7959C684.862 88.5886 684.85 88.6222 684.391 88.9871C683.569 89.6401 682.094 90.7389 679.91 92.2626C675.593 95.2747 669.003 99.602 660.383 104.807C643.153 115.211 618.071 128.967 587.212 142.623C525.35 169.997 441.125 196.589 350.786 195.678L350.635 210.677ZM677.046 112.215L685.783 124.407C786.01 52.5762 861.221 28.4894 916.93 30.0727C971.825 31.633 1010.14 58.2062 1037.14 93.8406C1064.47 129.903 1079.86 174.963 1087.52 211.253C1091.33 229.312 1093.14 244.768 1093.62 255.284C1093.86 260.654 1093.74 264.213 1093.52 266.015C1093.38 267.158 1093.33 266.523 1093.91 265.185C1094.15 264.635 1095.19 262.263 1097.83 260.168C1101.36 257.371 1106.55 256.076 1111.65 257.911L1106.57 272.024L1101.49 286.138C1107.01 288.123 1112.59 286.753 1116.48 283.666C1119.49 281.281 1120.87 278.403 1121.42 277.14C1122.62 274.378 1123.07 271.492 1123.3 269.633C1123.81 265.431 1123.86 259.977 1123.59 253.917C1123.02 241.571 1120.98 224.49 1116.87 205.055C1108.7 166.357 1092.02 116.595 1061.05 75.7237C1029.76 34.4252 983.58 1.955 917.782 0.0848583C852.798 -1.76214 771.127 26.3337 668.308 100.022L677.046 112.215ZM1108.6 266.954L1093.66 265.637C1090.37 302.914 1070.26 328.098 1041.11 343.446C1011.36 359.107 972.028 364.456 932.549 359.859C893.102 355.266 855.238 340.938 828.466 319.254C801.989 297.807 786.941 269.835 789.933 236.349L774.993 235.013L760.052 233.678C755.977 279.286 777.202 316.337 809.584 342.566C841.671 368.556 885.251 384.554 929.079 389.657C972.876 394.757 1018.65 389.173 1055.08 369.992C1092.11 350.499 1119.25 316.933 1123.54 268.271L1108.6 266.954ZM774.995 235.52L789.909 237.118C792.751 210.6 816.965 189.187 851.361 182.547C885.157 176.023 923.999 185.156 949.714 214.909L961.062 205.1L972.411 195.292C938.492 156.048 888.103 144.901 845.675 153.091C803.847 161.165 764.844 189.46 760.08 233.922L774.995 235.52ZM959.561 203.477L948.618 213.736C956.577 222.227 958.502 231.618 956.89 240.558C955.193 249.968 949.444 259.182 941.536 265.44C933.648 271.68 924.93 274.029 917.309 272.402C910.031 270.848 900.492 264.957 892.186 247.902L878.7 254.471L865.215 261.039C876.376 283.954 892.383 297.757 911.046 301.741C929.367 305.652 946.986 299.382 960.15 288.966C973.294 278.567 983.311 263.087 986.414 245.882C989.601 228.207 985.359 209.064 970.504 193.218L959.561 203.477ZM1058.91 350.103L1066.93 362.779C1179.08 291.838 1287.2 311.466 1348.23 361.502C1378.91 386.655 1397.24 418.982 1399.71 451.226C1402.14 482.933 1389.43 516.806 1353.57 546.403L1363.11 557.973L1372.66 569.542C1415.13 534.497 1432.89 491.513 1429.62 448.934C1426.4 406.893 1402.88 367.506 1367.25 338.301C1295.67 279.621 1173.36 259.956 1050.89 337.426L1058.91 350.103ZM1364.63 556.452L1354.44 545.447C1330.07 568.023 1296.45 578.147 1260.63 578.199C1224.8 578.25 1188.08 568.172 1159.21 551.973C1129.89 535.523 1111.24 514.322 1106.77 493.658C1102.67 474.69 1109.56 450.864 1144.12 425.406L1135.22 413.329L1126.32 401.252C1085.89 431.038 1070.02 465.634 1077.45 499.998C1084.51 532.665 1111.68 559.705 1144.53 578.136C1177.82 596.816 1219.61 608.258 1260.68 608.199C1301.76 608.14 1343.45 596.523 1374.83 567.456L1364.63 556.452ZM1126.53 420.465L1136.04 432.064C1185.06 391.866 1227.4 403.643 1243.3 419.56C1251.59 427.855 1251.75 435.139 1249.42 439.508C1246.56 444.854 1236.17 453.841 1207.27 456.224L1208.5 471.173L1209.73 486.123C1242.26 483.44 1265.79 472.535 1275.88 453.648C1286.49 433.783 1278.65 412.493 1264.52 398.356C1235.6 369.411 1175.51 360.9 1117.02 408.866L1126.53 420.465ZM1171.52 574.941L1164.99 588.444C1217.52 613.855 1252 638.72 1272.97 661.657C1293.82 684.467 1300.68 704.605 1299.97 721.392C1299.26 738.285 1290.78 754.626 1275.29 769.504C1259.76 784.421 1237.87 797.14 1212.53 806.251C1161.46 824.618 1100.46 826.961 1056.74 807.667C1035.22 798.169 1018.25 783.635 1008.02 763.443C997.765 743.207 993.509 715.781 1000.17 679.197L985.417 676.509L970.66 673.82C963.113 715.246 967.384 749.623 981.262 777.005C995.162 804.433 1017.94 823.335 1044.63 835.113C1097.33 858.373 1166.64 854.635 1222.68 834.481C1250.9 824.332 1276.77 809.68 1296.07 791.14C1315.41 772.562 1328.82 749.362 1329.95 722.651C1331.07 695.834 1319.7 668.308 1295.11 641.416C1270.65 614.652 1232.5 587.778 1178.06 561.439L1171.52 574.941ZM15 96.6023L0.894474 101.705C54.4034 249.63 137.853 352.445 226.242 409.246C314.404 465.902 408.969 477.413 481.889 438.8L474.869 425.544L467.849 412.287C407.347 444.325 324.578 436.78 242.461 384.008C160.571 331.383 80.797 234.401 29.1055 91.4999L15 96.6023ZM451.485 451.907L438.78 443.935C403.441 500.251 409.715 558.367 441.451 608.284C472.694 657.428 528.473 698.824 593.644 726.09C723.394 780.373 899.406 781.864 1008.55 664.943L997.586 654.707L986.621 644.472C889.417 748.602 728.75 750.094 605.223 698.414C543.755 672.698 493.745 634.622 466.767 592.189C440.282 550.53 435.901 504.963 464.191 459.88L451.485 451.907ZM432.219 499.565L446.697 503.49C459.012 458.064 484.978 431.315 515.002 417.992C545.488 404.464 581.447 404.241 613.775 414.649C646.178 425.082 673.352 445.664 687.315 471.787C700.913 497.226 702.934 529.6 682.269 566.933L695.393 574.197L708.517 581.461C733.736 535.899 732.52 492.717 713.773 457.645C695.392 423.258 661.113 398.374 622.969 386.093C584.751 373.788 541.069 373.603 502.833 390.571C464.134 407.744 432.298 441.948 417.742 495.641L432.219 499.565ZM697.423 570.14L684.302 562.871C671.813 585.415 653.993 594.785 635.409 596.408C616.088 598.095 594.9 591.407 577.635 579.508C560.173 567.474 548.999 551.748 546.636 537.505C544.546 524.907 548.788 510.182 570.111 496.602L562.053 483.95L553.995 471.298C524.411 490.14 512.642 515.9 517.041 542.415C521.167 567.286 538.981 589.303 560.611 604.21C582.436 619.252 610.442 628.702 638.019 626.294C666.335 623.821 693.12 608.861 710.544 577.409L697.423 570.14ZM556.107 487.826L564.808 500.045C573.811 493.634 580.583 493.648 585.104 495.079C590.201 496.693 594.743 500.859 597.324 506.149C600.001 511.636 599.506 515.891 598.446 517.865C597.854 518.969 595.326 522.698 584.244 522.698L584.244 537.698L584.244 552.698C602.637 552.698 617.503 545.797 624.88 532.053C631.789 519.18 629.837 504.372 624.286 492.994C618.638 481.419 608.181 470.918 594.16 466.479C579.564 461.857 563.101 464.431 547.406 475.607L556.107 487.826ZM983.258 693.287L997.949 696.316C1004.36 665.211 1022.06 649.435 1044.06 642.605C1067.16 635.433 1096.18 637.915 1123.16 647.059C1150.33 656.263 1172.51 671.21 1183.02 685.764C1188.16 692.886 1189.69 698.736 1189.3 703.174C1188.93 707.264 1186.71 712.684 1178.84 718.838L1188.07 730.657L1197.31 742.477C1210.1 732.485 1217.91 720.054 1219.18 705.836C1220.42 691.967 1215.17 679.053 1207.34 668.207C1191.91 646.823 1163.39 629.013 1132.79 618.646C1102.02 608.219 1066.21 604.316 1035.17 613.954C1003.02 623.933 977.246 648.16 968.567 690.259L983.258 693.287ZM1192.72 724.167L1183.91 712.029C1167.69 723.799 1150.68 727.863 1139.26 726.131C1133.76 725.295 1130.21 723.257 1128.05 720.878C1126 718.608 1124.06 714.761 1124.06 707.943L1109.06 707.942L1094.06 707.942C1094.06 720.897 1097.96 732.323 1105.81 741.002C1113.56 749.57 1123.98 754.155 1134.76 755.791C1155.92 759.002 1180.73 751.406 1201.53 736.305L1192.72 724.167Z" fill="currentColor"/>
</svg>
