<svg width="320" height="248" viewBox="0 0 320 248" fill="none" xmlns="http://www.w3.org/2000/svg">
<path d="M205.237 244.194C205.237 244.194 285.014 164.448 316.102 133.382C318.69 130.797 319.983 127.399 319.983 124C319.983 120.601 318.69 117.22 316.102 114.618C285.031 83.5694 205.237 3.84126 205.237 3.84126C202.685 1.27452 199.317 0 195.95 0C192.529 0 189.126 1.30992 186.52 3.91206C181.327 9.08094 181.292 17.4715 186.449 22.605L274.68 110.724H14.2765C6.93873 110.724 0.983398 116.672 0.983398 124C0.983398 131.328 6.93873 137.276 14.2765 137.276H274.68L186.432 225.413C181.309 230.528 181.362 238.901 186.538 244.07C189.161 246.69 192.582 248 195.985 248C199.353 248 202.685 246.725 205.237 244.194Z" fill="#CBBDC9"/>
</svg>
