<svg id="Group_10224" data-name="Group 10224" xmlns="http://www.w3.org/2000/svg" width="138" height="25.15" viewBox="0 0 138 25.15">
  <path id="Path_16943" data-name="Path 16943" d="M-1.4-1.125l-.124-.052c-1.236-.535-2.4-1.039-2.423-2.095A2.463,2.463,0,0,1-3.56-4.449l.01-.012.015,0a4.568,4.568,0,0,1,.741-.04h.032A5.211,5.211,0,0,1,1.125-2.588l.348-.1L1.449-5.293A11.8,11.8,0,0,0-2.1-5.845,5.536,5.536,0,0,0-6.039-4.507a3.216,3.216,0,0,0-.9,2.408C-6.9.057-5.087.851-3.485,1.553l.123.055c1.248.544,2.428,1.06,2.446,2.142a2.62,2.62,0,0,1-.41,1.289l-.015.027-.019,0-.049.01A5.285,5.285,0,0,1-2.587,5.2h-.047A5.836,5.836,0,0,1-6.88,3.078h-.383L-6.917,5.9l0,0a8.059,8.059,0,0,0,3.544.752A6.3,6.3,0,0,0,1.081,5.211a3.584,3.584,0,0,0,1-2.681C2.042.364.214-.427-1.4-1.125" transform="translate(33.096 12.457)" fill="#fafafa"/>
  <path id="Path_16944" data-name="Path 16944" d="M-2.96-2.478A3.61,3.61,0,0,0-6.833-6.206a17.225,17.225,0,0,0-4.085,1.455l-.06.027v-7.927l-.274-.226-4.01,1.112v.387l1.1.527V4.756l-.019.013-1.2.717v.4H-9.77V5.5l-1.209-.745V-3.791l.036-.006c.241-.03,1.467-.186,1.852-.186,1.939,0,2.922,1.007,2.922,2.993V4.783l-1.162.72v.382h5.7V5.5L-2.96,4.758Z" transform="translate(139.63 12.879)" fill="#fafafa"/>
  <path id="Path_16945" data-name="Path 16945" d="M-3.134-.608-4.173-3.159-7.426-.366-7.45-.375A6.563,6.563,0,0,0-9.844-.849,7.21,7.21,0,0,0-13.807.212a4.064,4.064,0,0,0-1.855,3.533,3.684,3.684,0,0,0,2.926,3.748l.086.024-.075.052a5,5,0,0,0-2.264,2.586,1.488,1.488,0,0,0,.351,1.211,2.335,2.335,0,0,0,1.774.695h4.369c1.341,0,2.08.6,2.08,1.7a2.856,2.856,0,0,1-.494,1.664l-.007.009-.01,0a7.07,7.07,0,0,1-2.894.522c-2.436,0-3.834-.877-3.834-2.407a2.491,2.491,0,0,1,.254-1.065h0a3.753,3.753,0,0,0-2.373.753,1.692,1.692,0,0,0-.513,1.271c0,2,2,3.193,5.361,3.193a9.9,9.9,0,0,0,5.15-1.258A4.344,4.344,0,0,0-3.421,12.6c0-1.914-1.4-3.057-3.754-3.057h-3.437c-1.42,0-1.7-.305-1.7-.833a3.17,3.17,0,0,1,.39-1l.014-.025.028,0a13,13,0,0,0,1.5.091,6.749,6.749,0,0,0,3.921-1.1,4.124,4.124,0,0,0,1.706-3.5A3.551,3.551,0,0,0-6.274.267L-6.346.213l.086-.022ZM-8.4,6.058l-.006.01-.011.006a3.267,3.267,0,0,1-1.519.279c-1.676,0-2.561-1.068-2.561-3.089A4.122,4.122,0,0,1-11.91.879L-11.9.871l.01-.006A3.316,3.316,0,0,1-10.516.656c1.771,0,2.633.987,2.633,3.017A4.976,4.976,0,0,1-8.4,6.058" transform="translate(58.679 7.448)" fill="#fafafa"/>
  <path id="Path_16946" data-name="Path 16946" d="M-3.134-.608l-1.04-2.551L-7.426-.366-7.45-.375A6.563,6.563,0,0,0-9.844-.849,7.212,7.212,0,0,0-13.807.212a4.064,4.064,0,0,0-1.856,3.533,3.685,3.685,0,0,0,2.927,3.748l.086.024-.075.052a5,5,0,0,0-2.265,2.586,1.485,1.485,0,0,0,.353,1.211,2.33,2.33,0,0,0,1.773.695H-8.5c1.342,0,2.081.6,2.081,1.7a2.859,2.859,0,0,1-.494,1.664l-.007.009-.01,0a7.065,7.065,0,0,1-2.894.522c-2.436,0-3.833-.877-3.833-2.407a2.491,2.491,0,0,1,.254-1.065h0a3.753,3.753,0,0,0-2.373.753,1.7,1.7,0,0,0-.513,1.271c0,2,2,3.193,5.361,3.193a9.889,9.889,0,0,0,5.149-1.258A4.343,4.343,0,0,0-3.421,12.6c0-1.914-1.4-3.057-3.754-3.057h-3.438c-1.419,0-1.7-.305-1.7-.833a3.131,3.131,0,0,1,.39-1l.014-.025.028,0a13,13,0,0,0,1.5.091,6.749,6.749,0,0,0,3.921-1.1,4.125,4.125,0,0,0,1.706-3.5A3.551,3.551,0,0,0-6.274.267L-6.346.213l.086-.022ZM-8.4,6.058l-.006.01-.01.006a3.275,3.275,0,0,1-1.52.279c-1.676,0-2.561-1.068-2.561-3.089A4.12,4.12,0,0,1-11.91.879L-11.9.871l.01-.006A3.316,3.316,0,0,1-10.516.656c1.772,0,2.633.987,2.633,3.017A5,5,0,0,1-8.4,6.058" transform="translate(126.967 7.448)" fill="#fafafa"/>
  <g id="Group_1649" data-name="Group 1649" transform="translate(36.023 6.638)">
    <path id="Path_16948" data-name="Path 16948" d="M-1.133-.054l-.282-.225L-5.72.918V1.3l1.33.623v8.8l-.023.011-1.474.732v.384H.308v-.383l-1.441-.745Z" transform="translate(5.887 0.279)" fill="#fafafa"/>
  </g>
  <path id="Path_16949" data-name="Path 16949" d="M-2.932-.889A3.578,3.578,0,0,0-6.758-4.618c-1.059,0-4.036,1.42-4.162,1.48l-.015.007-.136-.045V-4.4l-.286-.224-3.882,1.167v.38l1.1.624v8.8l-.015.013-.945.732v.38h5.379v-.38l-1.21-.745V-2.2l.036-.006c.336-.044,1.46-.186,1.828-.186,1.938,0,2.921,1.007,2.921,2.993V6.371l-1.7.72v.382H-1.6V7.092l-1.329-.745Z" transform="translate(71.138 11.279)" fill="#fafafa"/>
  <path id="Path_16950" data-name="Path 16950" d="M-2.8-.054l-.273-.227L-7.206.83v.388l1.219.5V6.891l-.054-.015c-.039-.012-4.011-1.134-6.6,1.169a6.535,6.535,0,0,0-1.92,5c0,3.6,1.868,5.747,5,5.747a6.424,6.424,0,0,0,3.546-1.551l.044-.038.023.054a17.076,17.076,0,0,0,.883,1.578c1.2-.244,3.85-1.03,3.978-1.076l0,0v-.4L-2.8,16.713ZM-5.988,16.235l-.033.007a14.182,14.182,0,0,1-1.946.3c-2.309,0-3.431-1.382-3.431-4.225a6.7,6.7,0,0,1,.808-3.344,1,1,0,0,1,.652-.455,8.642,8.642,0,0,1,1.489-.137,6.961,6.961,0,0,1,2.434.328l.027.01Z" transform="translate(14.565 0.281)" fill="#fafafa"/>
  <path id="Path_16951" data-name="Path 16951" d="M-2.8-.054l-.273-.227L-7.206.83v.388l1.219.5V6.891l-.054-.015c-.039-.012-4.011-1.134-6.6,1.169a6.538,6.538,0,0,0-1.92,5c0,3.6,1.868,5.747,5,5.747a6.424,6.424,0,0,0,3.546-1.551l.044-.038.023.054a17.076,17.076,0,0,0,.883,1.578c1.2-.244,3.85-1.03,3.978-1.076l0,0v-.4L-2.8,16.713ZM-5.988,16.235l-.033.007a14.176,14.176,0,0,1-1.947.3c-2.308,0-3.43-1.382-3.43-4.225a6.69,6.69,0,0,1,.808-3.344,1,1,0,0,1,.652-.455,8.642,8.642,0,0,1,1.489-.137,6.961,6.961,0,0,1,2.434.328l.027.01Z" transform="translate(84.593 0.281)" fill="#fafafa"/>
  <path id="Path_16952" data-name="Path 16952" d="M-1.627,0C-5.9,0-8.453,2.471-8.453,6.611c0,3.633,2.276,5.89,5.938,5.89,4.245,0,6.778-2.481,6.778-6.633C4.263,2.248,2.006,0-1.627,0M-.111,10.555l-.008.01-.013,0a5.1,5.1,0,0,1-1.495.186c-2.241,0-3.425-1.69-3.425-4.889a6.808,6.808,0,0,1,1-3.922l.007-.01.012,0a4.583,4.583,0,0,1,1.4-.187c2.256,0,3.5,1.7,3.5,4.795a7.091,7.091,0,0,1-.973,4.016" transform="translate(92.069 6.623)" fill="#fafafa"/>
  <path id="Path_16953" data-name="Path 16953" d="M-2.947-.054l-.266-.228L-7.749.625v.382l1.618.673V9.451l-.036.006c-.172.028-1.7.281-2.165.281-1.636,0-2.537-1.02-2.537-2.873V-.051l-.267-.228-4.175.9V.992l1.234.623V8.209A3.618,3.618,0,0,0-10.2,12.058a7.406,7.406,0,0,0,3.85-1.542c.078-.054.129-.09.158-.108l.01-.006h.064l.006.035a7.943,7.943,0,0,0,.837,1.618c.991-.163,3.9-1.066,3.994-1.1l0,0v-.376l-1.665-.647Z" transform="translate(112.091 7.066)" fill="#fafafa"/>
  <path id="Path_16954" data-name="Path 16954" d="M-.528-1.07a.085.085,0,0,0,.083,0,7.191,7.191,0,0,0,1.2-1.02A6.926,6.926,0,0,0,1.8-3.271a.08.08,0,0,0,0-.082A6.871,6.871,0,0,0,.781-4.532,7,7,0,0,0-.4-5.552a.083.083,0,0,0-.082,0,6.965,6.965,0,0,0-1.2,1.02A7.02,7.02,0,0,0-2.733-3.351a.077.077,0,0,0,0,.08A6.547,6.547,0,0,0-1.712-2.09,7.029,7.029,0,0,0-.528-1.07" transform="translate(39.564 6.278)" fill="#fafafa"/>
  <path id="Path_16955" data-name="Path 16955" d="M-1.5,0C-5.306,0-7.769,2.623-7.769,6.683c0,3.7,2.025,5.818,5.554,5.818A10.45,10.45,0,0,0,2.88,10.944l-.165-.72c-.1.022-.3.069-.548.128a22.923,22.923,0,0,1-2.867.57c-2.484,0-3.917-1.868-3.932-5.124V5.755l7.538.216V5.964a12.157,12.157,0,0,0,.145-1.826C3.051,2.591,2.46,0-1.5,0M-4.583,4.561l.006-.049A6.168,6.168,0,0,1-3.73,1.9l.007-.011.012,0a4.086,4.086,0,0,1,1.446-.209c1.637,0,2.474.894,2.489,2.656V4.37Z" transform="translate(21.571 6.623)" fill="#fafafa"/>
  <g id="Group_1658" data-name="Group 1658" transform="translate(133.77 3.619)">
    <path id="Path_16957" data-name="Path 16957" d="M-.1-.072H-.51v-.3h1.2v.3H.281V.968H-.1Z" transform="translate(0.51 0.372)" fill="#fafafa"/>
  </g>
  <g id="Group_1659" data-name="Group 1659" transform="translate(135.112 3.619)">
    <path id="Path_16958" data-name="Path 16958" d="M-.288-.319l0-.71-.345.577H-.805l-.342-.559v.691H-1.5v-1.34h.312l.471.773.46-.773H.057l0,1.34Z" transform="translate(1.498 1.659)" fill="#fafafa"/>
  </g>
</svg>
