<svg width="1715" height="1372" viewBox="0 0 1715 1372" fill="none" xmlns="http://www.w3.org/2000/svg">
<path d="M1064.16 1017.02C1184.95 1190.11 1091.89 1287.79 847.802 1312.36C709.373 1287.79 607.704 1181.71 691.938 1017.02C691.938 844.046 792.556 787.005 878.05 594.171C915.231 725.668 1064.16 844.046 1064.16 1017.02Z" fill="#EFDDDD" stroke="#25394C" stroke-width="70"/>
<path d="M251.766 870.229C345.866 1015.37 461.538 1035.89 549.098 1050.72C565.742 961.821 599.763 850.755 505.662 705.616C411.561 560.477 224.439 489.662 44.4181 453.112C215.406 569.485 157.665 725.09 251.766 870.229Z" fill="#EFDDDD"/>
<path d="M251.766 870.229C345.866 1015.37 461.538 1035.89 549.098 1050.72C565.742 961.821 599.763 850.755 505.662 705.616C411.561 560.477 224.439 489.662 44.4181 453.112C215.406 569.485 157.665 725.09 251.766 870.229Z" fill="#EFDDDD"/>
<path d="M251.766 870.229C345.866 1015.37 461.538 1035.89 549.098 1050.72C565.742 961.821 599.763 850.755 505.662 705.616C411.561 560.477 224.439 489.662 44.4181 453.112C215.406 569.485 157.665 725.09 251.766 870.229Z" stroke="#25394C" stroke-width="70"/>
<path d="M1463.23 877.791C1369.13 1022.93 1253.46 1043.45 1165.9 1058.28C1149.26 969.383 1115.24 858.317 1209.34 713.178C1303.44 568.039 1490.56 497.224 1670.58 460.674C1499.59 577.047 1557.33 732.652 1463.23 877.791Z" fill="#EFDDDD"/>
<path d="M1463.23 877.791C1369.13 1022.93 1253.46 1043.45 1165.9 1058.28C1149.26 969.383 1115.24 858.317 1209.34 713.178C1303.44 568.039 1490.56 497.224 1670.58 460.674C1499.59 577.047 1557.33 732.652 1463.23 877.791Z" fill="#EFDDDD"/>
<path d="M1463.23 877.791C1369.13 1022.93 1253.46 1043.45 1165.9 1058.28C1149.26 969.383 1115.24 858.317 1209.34 713.178C1303.44 568.039 1490.56 497.224 1670.58 460.674C1499.59 577.047 1557.33 732.652 1463.23 877.791Z" stroke="#25394C" stroke-width="70"/>
<path d="M1463.23 877.791C1369.13 1022.93 1253.46 1043.45 1165.9 1058.28C1149.26 969.383 1115.24 858.317 1209.34 713.178C1303.44 568.039 1490.56 497.224 1670.58 460.674C1499.59 577.047 1557.33 732.652 1463.23 877.791Z" stroke="#25394C" stroke-width="70"/>
<path d="M403.959 745.878C525.745 868.712 641.402 866.904 728.798 864.854C725.633 775.701 734.396 661.841 612.609 539.007C490.822 416.173 394.26 431.587 210.567 342.165C282.309 456.209 282.172 623.043 403.959 745.878Z" fill="#EFDDDD" stroke="#25394C" stroke-width="70"/>
<path d="M492.28 617.321C600.269 765.822 717.759 785.576 806.627 799.803C814.659 707.943 837.901 593.017 729.912 444.516C621.922 296.016 634.361 325.039 437.115 251.309C462.742 377.764 384.291 468.821 492.28 617.321Z" fill="#EFDDDD" stroke="#25394C" stroke-width="70"/>
<path d="M492.28 617.321C600.269 765.822 717.759 785.576 806.627 799.803C814.659 707.943 837.901 593.017 729.912 444.516C621.922 296.016 634.361 325.039 437.115 251.309C462.742 377.764 384.291 468.821 492.28 617.321Z" fill="#EFDDDD" stroke="#25394C" stroke-width="70"/>
<path d="M712.834 1209.81C541.275 1275.24 349.669 1189.67 267.452 1153.06C310.886 1071.72 436.566 1000.71 608.124 935.279C779.683 869.844 753.414 887.366 958.917 933.309C868.394 1025.25 884.393 1144.37 712.834 1209.81Z" fill="#EFDDDD" stroke="#25394C" stroke-width="70"/>
<path d="M1065.63 1230.68C1237.19 1296.12 1428.8 1210.54 1511.01 1173.93C1467.58 1092.59 1341.9 1021.59 1170.34 956.155C998.784 890.72 1025.05 908.242 819.55 954.185C910.073 1046.13 894.074 1165.25 1065.63 1230.68Z" fill="#EFDDDD" stroke="#25394C" stroke-width="70"/>
<path d="M1462.26 687C1361.29 827.449 1248.06 844.756 1162.39 857.163C1152.43 769.284 1127.2 659.163 1228.16 518.714C1329.13 378.264 1425.7 377.44 1592.03 259.518C1538.66 383.098 1563.22 546.55 1462.26 687Z" fill="#EFDDDD" stroke="#25394C" stroke-width="70"/>
<path d="M1218.32 631.713C1139.94 754.043 1034.72 766.575 955.026 775.446C934.719 697.059 897.185 598.512 975.561 476.181C1064.06 338.045 1160.25 330.979 1302.02 265.998C1238.68 364.693 1315.35 502.406 1218.32 631.713Z" fill="#EFDDDD" stroke="#25394C" stroke-width="70"/>
<path d="M1275.9 969.978C1181.79 1115.12 1049.54 1124.89 949.348 1131.53C920.669 1034.83 869.469 912.621 963.57 767.482C1057.67 622.343 1173.13 629.22 1349.77 513.927C1309.43 644.49 1370 824.839 1275.9 969.978Z" fill="#EFDDDD" stroke="#25394C" stroke-width="70"/>
<path d="M483.788 969.978C577.889 1115.12 710.147 1124.89 810.335 1131.53C839.015 1034.83 890.214 912.621 796.114 767.482C702.013 622.343 586.556 629.22 409.915 513.927C450.254 644.49 389.688 824.839 483.788 969.978Z" fill="#EFDDDD" stroke="#25394C" stroke-width="70"/>
<path d="M975.598 528.867C975.598 701.847 951.553 781.991 873.15 842.07C798.431 776.529 691.777 701.842 691.777 528.862C691.777 355.882 789.833 298.84 873.15 106C909.383 237.501 975.598 355.887 975.598 528.867Z" fill="#EFDDDD" stroke="#25394C" stroke-width="70"/>
<path d="M1064.16 877.541C1064.16 1050.52 958.501 1130.66 878.048 1190.74C801.376 1125.2 691.936 1050.52 691.936 877.541C691.936 704.566 792.554 647.526 878.048 454.692C915.229 586.189 1064.16 704.566 1064.16 877.541Z" fill="#EFDDDD" stroke="#25394C" stroke-width="70"/>
</svg>
