<svg width="318" height="76" viewBox="0 0 318 76" fill="none" xmlns="http://www.w3.org/2000/svg">
<mask id="mask0_521_268" style="mask-type:luminance" maskUnits="userSpaceOnUse" x="16" y="32" width="70" height="12">
<path d="M85.3335 32.667V43.333H17.4116V32.667H85.3335Z" fill="white" stroke="white" stroke-width="1.33333"/>
</mask>
<g mask="url(#mask0_521_268)">
<path d="M49.7505 33.2035L51.9224 36.9584L52.1157 37.2914H58.353L58.5454 36.9584L60.7183 33.2035H115.121C115.596 36.2764 115.596 39.399 115.121 42.4633H60.7183L58.5454 38.7084L58.353 38.3754H52.1157L51.9224 38.7084L49.7505 42.4633H20.9058L18.2319 37.8334L20.9058 33.2035H49.7505Z" fill="#FF6E00" stroke="#FF6E00" stroke-width="1.33333"/>
</g>
<mask id="mask1_521_268" style="mask-type:luminance" maskUnits="userSpaceOnUse" x="30" y="5" width="56" height="13">
<path d="M85.333 6.00037V16.6664H30.7451V6.00037H85.333Z" fill="white" stroke="white" stroke-width="1.33333"/>
</mask>
<g mask="url(#mask1_521_268)">
<path d="M70.1458 7.16162C84.6215 7.16162 96.2643 5.55138 106.727 16.4272H50.2747L48.1028 12.6763L47.9104 12.3442H41.6731L41.4807 12.6763L39.3137 16.4165H33.9631L31.2893 11.7905L33.9631 7.16162H39.3079L41.4797 10.9175L41.6731 11.2505H47.9104L48.1028 10.9175L50.2756 7.16162H70.1458Z" fill="#FF6E00" stroke="#FF6E00" stroke-width="1.33333"/>
</g>
<mask id="mask2_521_268" style="mask-type:luminance" maskUnits="userSpaceOnUse" x="58" y="18" width="28" height="13">
<path d="M85.333 19.3336V29.9996H58.7451V19.3336H85.333Z" fill="white" stroke="white" stroke-width="1.33333"/>
</mask>
<g mask="url(#mask2_521_268)">
<path d="M109.848 20.1774C111.821 22.9664 113.344 26.0903 114.301 29.4479H78.9994L76.8275 25.692L76.6342 25.359H70.392L70.1986 25.692L68.0267 29.4479H62.682L60.0092 24.817L62.682 20.1871H68.0267L70.1986 23.943L70.392 24.276H76.6351L76.8275 23.942L78.9994 20.1774H109.848Z" fill="#FF6E00" stroke="#FF6E00" stroke-width="1.33333"/>
</g>
<mask id="mask3_521_268" style="mask-type:luminance" maskUnits="userSpaceOnUse" x="0" y="32" width="13" height="12">
<path d="M12.0781 32.667V43.333H0.666992V32.667H12.0781Z" fill="white" stroke="white" stroke-width="1.33333"/>
</mask>
<g mask="url(#mask3_521_268)">
<path d="M8.79688 33.2035L11.4697 37.8334L8.79688 42.474H3.44238L0.769531 37.8324L3.44238 33.2035H8.79688Z" fill="#FF6E00" stroke="#FF6E00" stroke-width="1.33333"/>
</g>
<path d="M50.5781 20.1879L53.251 24.8177L50.5781 29.4476H45.2236L42.5498 24.8177L45.2236 20.1879H50.5781Z" fill="#FF6E00" stroke="#FF6E00" stroke-width="1.33333"/>
<path d="M29.6821 59.24L32.355 63.8738L29.6821 68.5056H24.3374L21.6548 63.8738L24.3374 59.24H29.6821Z" fill="#FF6E00" stroke="#FF6E00" stroke-width="1.33333"/>
<mask id="mask4_521_268" style="mask-type:luminance" maskUnits="userSpaceOnUse" x="32" y="45" width="54" height="13">
<path d="M85.3335 46.0004V56.6664H33.4116V46.0004H85.3335Z" fill="white" stroke="white" stroke-width="1.33333"/>
</mask>
<g mask="url(#mask4_521_268)">
<path d="M114.289 46.2139C113.332 49.5671 111.81 52.6908 109.837 55.4795H52.8845L50.7126 51.7236L50.5193 51.3906H44.2771L44.0837 51.7236L41.9119 55.4795H36.5671L33.8943 50.8486L36.5671 46.2236H41.9119L44.0847 49.9746L44.2771 50.3076H50.5212L50.7126 49.9727L52.8748 46.2139H114.289Z" fill="#FF6E00" stroke="#FF6E00" stroke-width="1.33333"/>
</g>
<mask id="mask5_521_268" style="mask-type:luminance" maskUnits="userSpaceOnUse" x="38" y="57" width="48" height="13">
<path d="M85.333 58.0004V68.6664H38.7451V58.0004H85.333Z" fill="white" stroke="white" stroke-width="1.33333"/>
</mask>
<g mask="url(#mask5_521_268)">
<path d="M106.122 59.4066C95.4404 70.4901 83.0891 68.704 67.9526 68.6732L65.7798 64.9164L65.5874 64.5834H59.3442L59.1519 64.9164L56.98 68.6722H41.187L38.5142 64.0414L41.187 59.4164H56.98L59.1519 63.1674L59.3442 63.5004H65.5874L65.7798 63.1664L67.9517 59.4066H106.122Z" fill="#FF6E00" stroke="#FF6E00" stroke-width="1.33333"/>
</g>
<path d="M123.843 49.1189H116.738L107.759 33.4106V49.1189H101.03V22.9523H108.134L117.113 38.6398V22.9523H123.843V49.1189Z" fill="white"/>
<path d="M140.48 49.1189H133.188L143.105 22.9523H150.584L160.48 49.1189H153.188L151.521 44.4523H142.167L140.48 49.1189ZM143.855 39.5773H149.834L146.834 30.7856L143.855 39.5773Z" fill="white"/>
<path d="M166.848 22.9523H173.952L180.119 35.6606L186.286 22.9523H193.411L183.494 42.2023V49.1189H176.765V42.2023L166.848 22.9523Z" fill="white"/>
<path d="M215.095 49.1189H208.366V28.1814H200.512V22.9523H222.95V28.1814H215.095V49.1189Z" fill="white"/>
<path d="M253.806 49.1189H233.056V22.9523H253.806V28.1814H239.785V33.2231H250.806V38.4523H239.785V43.8898H253.806V49.1189Z" fill="white"/>
<path d="M284.474 48.7439C278.916 49.2439 274.307 49.4939 270.64 49.4939C268.192 49.4939 266.396 48.9262 265.244 47.7856C264.104 46.6346 263.536 44.8377 263.536 42.3898V30.4314C263.536 27.8064 264.125 25.9054 265.307 24.7231C266.484 23.546 268.39 22.9523 271.015 22.9523H284.474V28.1814H272.515C271.015 28.1814 270.265 28.9314 270.265 30.4314V42.3898C270.265 42.9627 270.432 43.421 270.765 43.7648C271.099 44.0981 271.526 44.2648 272.057 44.2648C272.583 44.2648 273.161 44.2596 273.786 44.2439C274.411 44.2335 275.057 44.2127 275.724 44.1814C276.39 44.1554 277.062 44.1346 277.744 44.1189C278.437 44.0929 279.328 44.046 280.411 43.9731C281.494 43.8898 282.849 43.8012 284.474 43.7023V48.7439Z" fill="white"/>
<path d="M317.768 49.1189H311.038V38.4523H301.684V49.1189H294.955V22.9523H301.684V33.2231H311.038V22.9523H317.768V49.1189Z" fill="white"/>
<path d="M85.729 2V74.3333" stroke="#FF6E00" stroke-width="3" stroke-linecap="round"/>
</svg>
