<svg width="318" height="76" viewBox="0 0 318 76" fill="none" xmlns="http://www.w3.org/2000/svg">
<mask id="mask0_521_203" style="mask-type:luminance" maskUnits="userSpaceOnUse" x="16" y="32" width="70" height="12">
<path d="M16.7446 32H85.9998V44H16.7446V32Z" fill="white"/>
</mask>
<g mask="url(#mask0_521_203)">
<path d="M115.687 32.5365H60.3332L57.9686 36.625H52.4998L50.1353 32.5365C48.0936 32.5365 22.5571 32.5365 20.5207 32.5365L17.4634 37.8334L20.5207 43.1302C22.5571 43.1302 48.0936 43.1302 50.1353 43.1302L52.4998 39.0417H57.9686L60.3332 43.1302H115.687C116.297 39.6302 116.297 36.0469 115.687 32.5365Z" fill="#0091FF"/>
</g>
<mask id="mask1_521_203" style="mask-type:luminance" maskUnits="userSpaceOnUse" x="30" y="5" width="56" height="13">
<path d="M30.0781 5.33337H86V17.3334H30.0781V5.33337Z" fill="white"/>
</mask>
<g mask="url(#mask1_521_203)">
<path d="M39.6926 17.0938L42.0572 13.0105H47.526L49.8905 17.0938H108.25C97.2812 4.72923 84.9791 6.49485 70.1458 6.49485H49.8905L47.526 10.5834H42.0572L39.6926 6.49485H33.578L30.5208 11.7917L33.578 17.0834H39.6926V17.0938Z" fill="#0091FF"/>
</g>
<mask id="mask2_521_203" style="mask-type:luminance" maskUnits="userSpaceOnUse" x="58" y="18" width="28" height="13">
<path d="M58.0781 18.6666H86V30.6666H58.0781V18.6666Z" fill="white"/>
</mask>
<g mask="url(#mask2_521_203)">
<path d="M76.25 23.6093H70.7761L68.4115 19.5208H62.2969L59.2396 24.8177L62.2969 30.1145H68.4115L70.7761 26.026H76.25L78.6146 30.1145H115.172C114.188 26.2448 112.474 22.6614 110.193 19.5104H78.6146L76.25 23.6093Z" fill="#0091FF"/>
</g>
<mask id="mask3_521_203" style="mask-type:luminance" maskUnits="userSpaceOnUse" x="0" y="32" width="13" height="12">
<path d="M0 32H12.7448V44H0V32Z" fill="white"/>
</mask>
<g mask="url(#mask3_521_203)">
<path d="M3.05729 32.5365L0 37.8334L3.05729 43.1407H9.18229L12.2396 37.8334L9.18229 32.5365H3.05729Z" fill="#0091FF"/>
</g>
<path d="M41.7812 24.8177L44.8385 30.1146H50.9635L54.0208 24.8177L50.9635 19.5209H44.8385L41.7812 24.8177Z" fill="#0091FF"/>
<path d="M23.953 58.573L20.8853 63.8751L23.953 69.172H30.0675L33.1248 63.8751L30.0675 58.573H23.953Z" fill="#0091FF"/>
<mask id="mask4_521_203" style="mask-type:luminance" maskUnits="userSpaceOnUse" x="32" y="45" width="54" height="13">
<path d="M32.7446 45.3334H85.9998V57.3334H32.7446V45.3334Z" fill="white"/>
</mask>
<g mask="url(#mask4_521_203)">
<path d="M50.1352 49.6406H44.6612L42.2966 45.5573H36.182L33.1248 50.849L36.182 56.1458H42.2966L44.6612 52.0573H50.1352L52.4998 56.1458H110.182C112.463 52.9948 114.177 49.4115 115.161 45.5469C96.0102 45.5469 71.6404 45.5469 52.4893 45.5469L50.1352 49.6406Z" fill="#0091FF"/>
</g>
<mask id="mask5_521_203" style="mask-type:luminance" maskUnits="userSpaceOnUse" x="38" y="57" width="48" height="13">
<path d="M38.0781 57.3334H86V69.3334H38.0781V57.3334Z" fill="white"/>
</mask>
<g mask="url(#mask5_521_203)">
<path d="M65.2031 62.8334H59.7291L57.3645 58.75C51.8489 58.75 46.3229 58.75 40.802 58.75L37.7448 64.0417L40.802 69.3386C46.3229 69.3386 51.8385 69.3386 57.3645 69.3386L59.7291 65.25H65.2031L67.5677 69.3386C83.2291 69.3386 96.3958 71.4271 107.646 58.7396H67.5677L65.2031 62.8334Z" fill="#0091FF"/>
</g>
<path d="M123.843 49.1189H116.738L107.759 33.4106V49.1189H101.03V22.9523H108.134L117.113 38.6398V22.9523H123.843V49.1189Z" fill="white"/>
<path d="M140.48 49.1189H133.188L143.105 22.9523H150.584L160.48 49.1189H153.188L151.521 44.4523H142.167L140.48 49.1189ZM143.855 39.5773H149.834L146.834 30.7856L143.855 39.5773Z" fill="white"/>
<path d="M166.848 22.9523H173.952L180.119 35.6606L186.286 22.9523H193.411L183.494 42.2023V49.1189H176.765V42.2023L166.848 22.9523Z" fill="white"/>
<path d="M215.095 49.1189H208.366V28.1814H200.512V22.9523H222.95V28.1814H215.095V49.1189Z" fill="white"/>
<path d="M253.806 49.1189H233.056V22.9523H253.806V28.1814H239.785V33.2231H250.806V38.4523H239.785V43.8898H253.806V49.1189Z" fill="white"/>
<path d="M284.474 48.7439C278.916 49.2439 274.307 49.4939 270.64 49.4939C268.192 49.4939 266.396 48.9262 265.244 47.7856C264.104 46.6346 263.536 44.8377 263.536 42.3898V30.4314C263.536 27.8064 264.125 25.9054 265.307 24.7231C266.484 23.546 268.39 22.9523 271.015 22.9523H284.474V28.1814H272.515C271.015 28.1814 270.265 28.9314 270.265 30.4314V42.3898C270.265 42.9627 270.432 43.421 270.765 43.7648C271.099 44.0981 271.526 44.2648 272.057 44.2648C272.583 44.2648 273.161 44.2596 273.786 44.2439C274.411 44.2335 275.057 44.2127 275.724 44.1814C276.39 44.1554 277.062 44.1346 277.744 44.1189C278.437 44.0929 279.328 44.046 280.411 43.9731C281.494 43.8898 282.849 43.8012 284.474 43.7023V48.7439Z" fill="white"/>
<path d="M317.768 49.1189H311.038V38.4523H301.684V49.1189H294.955V22.9523H301.684V33.2231H311.038V22.9523H317.768V49.1189Z" fill="white"/>
<path d="M85.729 2V74.3333" stroke="#0091FF" stroke-width="3" stroke-linecap="round"/>
</svg>
